<svg xmlns="http://www.w3.org/2000/svg" width="90" height="110" fill="none" viewBox="0 0 90 110"><g filter="url(#filter0_dii_49_1324)"><path fill="url(#paint0_linear_49_1324)" d="M72.0015 48.2808C71.3135 54.2771 69.4474 61.9692 51.0246 61.8482C32.6017 61.7272 35.2209 51.3751 35.9089 45.3788C36.5969 39.3825 44.123 34.9777 53.8703 35.9793C63.6175 36.9809 72.6895 42.2845 72.0015 48.2808Z"/><path fill="url(#paint1_linear_49_1324)" d="M66.6993 29.211C66.0113 35.2073 64.1453 42.8994 45.7224 42.7784C27.2996 42.6574 29.9188 32.3053 30.6068 26.309C31.2948 20.3127 38.8209 15.9079 48.5681 16.9095C58.3154 17.9111 67.3873 23.2147 66.6993 29.211Z"/><ellipse fill="url(#paint2_radial_49_1324)" rx="20.365" ry="15.841" transform="matrix(0.985355 0.170517 -0.189714 0.981839 53.6411 19.0259)"/><path fill="url(#paint3_linear_49_1324)" d="M39.7756 13.1604C41.4849 17.1579 37.903 22.6983 31.7927 25.0383C25.6823 27.3783 18.5329 26.6253 16.8236 22.6278C15.1142 18.6303 18.6961 13.0899 24.8065 10.7499C30.9168 8.40991 38.0663 9.16293 39.7756 13.1604Z"/><path fill="url(#paint4_linear_49_1324)" d="M39.0695 53.4493C31.9241 59.5168 20.2818 58.2657 13.0657 50.6549C5.84961 43.0441 5.79227 31.9556 12.9376 25.8881C20.083 19.8205 31.7253 21.0717 38.9414 28.6825C46.1575 36.2933 46.2148 47.3818 39.0695 53.4493Z"/><path fill="url(#paint5_radial_49_1324)" d="M67.38 54.2322C59.85 53.0764 57.6181 45.2973 59.2205 35.9478C62.6179 27.1953 67.3295 21.8934 74.8595 23.0492C82.3896 24.2051 86.8828 31.5845 85.2804 40.9341C83.6779 50.2836 74.9101 55.3881 67.38 54.2322Z"/></g><g filter="url(#filter1_f_49_1324)"><ellipse cx="47.408" cy="45.854" fill="url(#paint6_linear_49_1324)" rx="26.009" ry="6.866"/></g><g filter="url(#filter2_dii_49_1324)"><path fill="url(#paint7_radial_49_1324)" d="M36.5339 46.8688C36.7812 46.2942 37.3468 45.9218 37.9725 45.9218L57.1448 45.9218C58.3956 45.9218 59.1417 47.3159 58.4479 48.3567L51.8852 58.2005C51.0857 59.3998 52.1938 60.9511 53.5875 60.5837L58.7544 59.2217C60.1698 58.8486 61.2779 60.4483 60.4311 61.6422L49.5947 76.9199L32.8641 98.5841C31.8509 99.896 29.7606 98.9406 30.0896 97.316L34.974 73.1959C35.1705 72.2258 34.4289 71.3189 33.439 71.3189L28.3906 71.3189C27.2652 71.3189 26.5071 70.1674 26.952 69.1337L36.5339 46.8688Z"/></g><g filter="url(#filter3_dii_49_1324)"><path fill="#50B1D8" d="M27.6197 50.7545C27.6197 53.8685 24.9476 56.5349 22.0016 56.5349C19.0556 56.5349 16.4443 53.8685 16.4443 50.7545C16.4443 48.4022 19.5083 44.9062 21.1948 44.1543C21.6732 43.941 22.329 43.958 22.8027 44.1816C24.455 44.9617 27.6197 48.2934 27.6197 50.7545Z"/></g><g filter="url(#filter4_f_49_1324)"><ellipse cx="18.128" cy="51.837" fill="#fff" rx="1.399" ry="1.582"/></g><g filter="url(#filter5_dii_49_1324)"><path fill="#50B1D8" d="M67.5567 78.8667C67.5567 81.9807 64.8846 84.6471 61.9386 84.6471C58.9926 84.6471 56.3813 81.9807 56.3813 78.8667C56.3813 76.5144 59.4453 73.0185 61.1318 72.2666C61.6103 72.0533 62.266 72.0702 62.7397 72.2939C64.3921 73.074 67.5567 76.4056 67.5567 78.8667Z"/></g><g filter="url(#filter6_f_49_1324)"><ellipse cx="58.065" cy="79.95" fill="#fff" rx="1.399" ry="1.582"/></g><g filter="url(#filter7_dii_49_1324)"><path fill="#50B1D8" d="M26.7584 96.2509C26.7584 99.3649 24.0863 102.031 21.1403 102.031C18.1943 102.031 15.583 99.3649 15.583 96.2509C15.583 93.8986 18.647 90.4026 20.3335 89.6507C20.8119 89.4374 21.4677 89.4544 21.9414 89.678C23.5937 90.4581 26.7584 93.7898 26.7584 96.2509Z"/></g><g filter="url(#filter8_f_49_1324)"><ellipse cx="17.267" cy="97.334" fill="#fff" rx="1.399" ry="1.582"/></g><defs><filter id="filter0_dii_49_1324" width="81.277" height="62.052" x="4.483" y="2.93" color-interpolation-filters="sRGB" filterUnits="userSpaceOnUse"><feFlood flood-opacity="0" result="BackgroundImageFix"/><feColorMatrix in="SourceAlpha" result="hardAlpha" type="matrix" values="0 0 0 0 0 0 0 0 0 0 0 0 0 0 0 0 0 0 127 0"/><feOffset dx="-1.566" dy="1.566"/><feGaussianBlur stdDeviation=".783"/><feComposite in2="hardAlpha" operator="out"/><feColorMatrix type="matrix" values="0 0 0 0 0 0 0 0 0 0 0 0 0 0 0 0 0 0 0.25 0"/><feBlend in2="BackgroundImageFix" mode="normal" result="effect1_dropShadow_49_1324"/><feBlend in="SourceGraphic" in2="effect1_dropShadow_49_1324" mode="normal" result="shape"/><feColorMatrix in="SourceAlpha" result="hardAlpha" type="matrix" values="0 0 0 0 0 0 0 0 0 0 0 0 0 0 0 0 0 0 127 0"/><feOffset dx=".157" dy="-.157"/><feGaussianBlur stdDeviation=".078"/><feComposite in2="hardAlpha" k2="-1" k3="1" operator="arithmetic"/><feColorMatrix type="matrix" values="0 0 0 0 0 0 0 0 0 0 0 0 0 0 0 0 0 0 0.25 0"/><feBlend in2="shape" mode="normal" result="effect2_innerShadow_49_1324"/><feColorMatrix in="SourceAlpha" result="hardAlpha" type="matrix" values="0 0 0 0 0 0 0 0 0 0 0 0 0 0 0 0 0 0 127 0"/><feOffset dx="-.157" dy=".157"/><feGaussianBlur stdDeviation=".078"/><feComposite in2="hardAlpha" k2="-1" k3="1" operator="arithmetic"/><feColorMatrix type="matrix" values="0 0 0 0 1 0 0 0 0 1 0 0 0 0 1 0 0 0 0.25 0"/><feBlend in2="effect2_innerShadow_49_1324" mode="normal" result="effect3_innerShadow_49_1324"/></filter><filter id="filter1_f_49_1324" width="83.341" height="45.054" x="5.737" y="23.327" color-interpolation-filters="sRGB" filterUnits="userSpaceOnUse"><feFlood flood-opacity="0" result="BackgroundImageFix"/><feBlend in="SourceGraphic" in2="BackgroundImageFix" mode="normal" result="shape"/><feGaussianBlur result="effect1_foregroundBlur_49_1324" stdDeviation="7.831"/></filter><filter id="filter2_dii_49_1324" width="37.192" height="56.567" x="23.691" y="45.765" color-interpolation-filters="sRGB" filterUnits="userSpaceOnUse"><feFlood flood-opacity="0" result="BackgroundImageFix"/><feColorMatrix in="SourceAlpha" result="hardAlpha" type="matrix" values="0 0 0 0 0 0 0 0 0 0 0 0 0 0 0 0 0 0 127 0"/><feOffset dx="-1.566" dy="1.566"/><feGaussianBlur stdDeviation=".783"/><feComposite in2="hardAlpha" operator="out"/><feColorMatrix type="matrix" values="0 0 0 0 0 0 0 0 0 0 0 0 0 0 0 0 0 0 0.25 0"/><feBlend in2="BackgroundImageFix" mode="normal" result="effect1_dropShadow_49_1324"/><feBlend in="SourceGraphic" in2="effect1_dropShadow_49_1324" mode="normal" result="shape"/><feColorMatrix in="SourceAlpha" result="hardAlpha" type="matrix" values="0 0 0 0 0 0 0 0 0 0 0 0 0 0 0 0 0 0 127 0"/><feOffset dx=".157" dy="-.157"/><feGaussianBlur stdDeviation=".078"/><feComposite in2="hardAlpha" k2="-1" k3="1" operator="arithmetic"/><feColorMatrix type="matrix" values="0 0 0 0 0 0 0 0 0 0 0 0 0 0 0 0 0 0 0.25 0"/><feBlend in2="shape" mode="normal" result="effect2_innerShadow_49_1324"/><feColorMatrix in="SourceAlpha" result="hardAlpha" type="matrix" values="0 0 0 0 0 0 0 0 0 0 0 0 0 0 0 0 0 0 127 0"/><feOffset dx="-.157" dy=".157"/><feGaussianBlur stdDeviation=".078"/><feComposite in2="hardAlpha" k2="-1" k3="1" operator="arithmetic"/><feColorMatrix type="matrix" values="0 0 0 0 1 0 0 0 0 1 0 0 0 0 1 0 0 0 0.25 0"/><feBlend in2="effect2_innerShadow_49_1324" mode="normal" result="effect3_innerShadow_49_1324"/></filter><filter id="filter3_dii_49_1324" width="14.464" height="15.663" x="13.312" y="44.004" color-interpolation-filters="sRGB" filterUnits="userSpaceOnUse"><feFlood flood-opacity="0" result="BackgroundImageFix"/><feColorMatrix in="SourceAlpha" result="hardAlpha" type="matrix" values="0 0 0 0 0 0 0 0 0 0 0 0 0 0 0 0 0 0 127 0"/><feOffset dx="-1.566" dy="1.566"/><feGaussianBlur stdDeviation=".783"/><feComposite in2="hardAlpha" operator="out"/><feColorMatrix type="matrix" values="0 0 0 0 0 0 0 0 0 0 0 0 0 0 0 0 0 0 0.25 0"/><feBlend in2="BackgroundImageFix" mode="normal" result="effect1_dropShadow_49_1324"/><feBlend in="SourceGraphic" in2="effect1_dropShadow_49_1324" mode="normal" result="shape"/><feColorMatrix in="SourceAlpha" result="hardAlpha" type="matrix" values="0 0 0 0 0 0 0 0 0 0 0 0 0 0 0 0 0 0 127 0"/><feOffset dx=".157"/><feGaussianBlur stdDeviation=".783"/><feComposite in2="hardAlpha" k2="-1" k3="1" operator="arithmetic"/><feColorMatrix type="matrix" values="0 0 0 0 0.294118 0 0 0 0 0.607843 0 0 0 0 0.733333 0 0 0 0.7 0"/><feBlend in2="shape" mode="normal" result="effect2_innerShadow_49_1324"/><feColorMatrix in="SourceAlpha" result="hardAlpha" type="matrix" values="0 0 0 0 0 0 0 0 0 0 0 0 0 0 0 0 0 0 127 0"/><feOffset dx="-.157"/><feGaussianBlur stdDeviation=".783"/><feComposite in2="hardAlpha" k2="-1" k3="1" operator="arithmetic"/><feColorMatrix type="matrix" values="0 0 0 0 0.293333 0 0 0 0 0.608235 0 0 0 0 0.733333 0 0 0 0.7 0"/><feBlend in2="effect2_innerShadow_49_1324" mode="normal" result="effect3_innerShadow_49_1324"/></filter><filter id="filter4_f_49_1324" width="12.196" height="12.561" x="12.03" y="45.557" color-interpolation-filters="sRGB" filterUnits="userSpaceOnUse"><feFlood flood-opacity="0" result="BackgroundImageFix"/><feBlend in="SourceGraphic" in2="BackgroundImageFix" mode="normal" result="shape"/><feGaussianBlur result="effect1_foregroundBlur_49_1324" stdDeviation="2.349"/></filter><filter id="filter5_dii_49_1324" width="14.464" height="15.663" x="53.249" y="72.116" color-interpolation-filters="sRGB" filterUnits="userSpaceOnUse"><feFlood flood-opacity="0" result="BackgroundImageFix"/><feColorMatrix in="SourceAlpha" result="hardAlpha" type="matrix" values="0 0 0 0 0 0 0 0 0 0 0 0 0 0 0 0 0 0 127 0"/><feOffset dx="-1.566" dy="1.566"/><feGaussianBlur stdDeviation=".783"/><feComposite in2="hardAlpha" operator="out"/><feColorMatrix type="matrix" values="0 0 0 0 0 0 0 0 0 0 0 0 0 0 0 0 0 0 0.25 0"/><feBlend in2="BackgroundImageFix" mode="normal" result="effect1_dropShadow_49_1324"/><feBlend in="SourceGraphic" in2="effect1_dropShadow_49_1324" mode="normal" result="shape"/><feColorMatrix in="SourceAlpha" result="hardAlpha" type="matrix" values="0 0 0 0 0 0 0 0 0 0 0 0 0 0 0 0 0 0 127 0"/><feOffset dx=".157"/><feGaussianBlur stdDeviation=".783"/><feComposite in2="hardAlpha" k2="-1" k3="1" operator="arithmetic"/><feColorMatrix type="matrix" values="0 0 0 0 0.294118 0 0 0 0 0.607843 0 0 0 0 0.733333 0 0 0 0.7 0"/><feBlend in2="shape" mode="normal" result="effect2_innerShadow_49_1324"/><feColorMatrix in="SourceAlpha" result="hardAlpha" type="matrix" values="0 0 0 0 0 0 0 0 0 0 0 0 0 0 0 0 0 0 127 0"/><feOffset dx="-.157"/><feGaussianBlur stdDeviation=".783"/><feComposite in2="hardAlpha" k2="-1" k3="1" operator="arithmetic"/><feColorMatrix type="matrix" values="0 0 0 0 0.293333 0 0 0 0 0.608235 0 0 0 0 0.733333 0 0 0 0.7 0"/><feBlend in2="effect2_innerShadow_49_1324" mode="normal" result="effect3_innerShadow_49_1324"/></filter><filter id="filter6_f_49_1324" width="12.196" height="12.561" x="51.967" y="73.669" color-interpolation-filters="sRGB" filterUnits="userSpaceOnUse"><feFlood flood-opacity="0" result="BackgroundImageFix"/><feBlend in="SourceGraphic" in2="BackgroundImageFix" mode="normal" result="shape"/><feGaussianBlur result="effect1_foregroundBlur_49_1324" stdDeviation="2.349"/></filter><filter id="filter7_dii_49_1324" width="14.464" height="15.663" x="12.451" y="89.5" color-interpolation-filters="sRGB" filterUnits="userSpaceOnUse"><feFlood flood-opacity="0" result="BackgroundImageFix"/><feColorMatrix in="SourceAlpha" result="hardAlpha" type="matrix" values="0 0 0 0 0 0 0 0 0 0 0 0 0 0 0 0 0 0 127 0"/><feOffset dx="-1.566" dy="1.566"/><feGaussianBlur stdDeviation=".783"/><feComposite in2="hardAlpha" operator="out"/><feColorMatrix type="matrix" values="0 0 0 0 0 0 0 0 0 0 0 0 0 0 0 0 0 0 0.25 0"/><feBlend in2="BackgroundImageFix" mode="normal" result="effect1_dropShadow_49_1324"/><feBlend in="SourceGraphic" in2="effect1_dropShadow_49_1324" mode="normal" result="shape"/><feColorMatrix in="SourceAlpha" result="hardAlpha" type="matrix" values="0 0 0 0 0 0 0 0 0 0 0 0 0 0 0 0 0 0 127 0"/><feOffset dx=".157"/><feGaussianBlur stdDeviation=".783"/><feComposite in2="hardAlpha" k2="-1" k3="1" operator="arithmetic"/><feColorMatrix type="matrix" values="0 0 0 0 0.294118 0 0 0 0 0.607843 0 0 0 0 0.733333 0 0 0 0.7 0"/><feBlend in2="shape" mode="normal" result="effect2_innerShadow_49_1324"/><feColorMatrix in="SourceAlpha" result="hardAlpha" type="matrix" values="0 0 0 0 0 0 0 0 0 0 0 0 0 0 0 0 0 0 127 0"/><feOffset dx="-.157"/><feGaussianBlur stdDeviation=".783"/><feComposite in2="hardAlpha" k2="-1" k3="1" operator="arithmetic"/><feColorMatrix type="matrix" values="0 0 0 0 0.293333 0 0 0 0 0.608235 0 0 0 0 0.733333 0 0 0 0.7 0"/><feBlend in2="effect2_innerShadow_49_1324" mode="normal" result="effect3_innerShadow_49_1324"/></filter><filter id="filter8_f_49_1324" width="12.196" height="12.561" x="11.169" y="91.053" color-interpolation-filters="sRGB" filterUnits="userSpaceOnUse"><feFlood flood-opacity="0" result="BackgroundImageFix"/><feBlend in="SourceGraphic" in2="BackgroundImageFix" mode="normal" result="shape"/><feGaussianBlur result="effect1_foregroundBlur_49_1324" stdDeviation="2.349"/></filter><linearGradient id="paint0_linear_49_1324" x1="51.05" x2="53.389" y1="86.853" y2="45.59" gradientUnits="userSpaceOnUse"><stop offset="1" stop-color="#392E5C"/></linearGradient><linearGradient id="paint1_linear_49_1324" x1="51.05" x2="53.389" y1="86.853" y2="45.59" gradientUnits="userSpaceOnUse"><stop offset="1" stop-color="#392E5C"/></linearGradient><radialGradient id="paint2_radial_49_1324" cx="0" cy="0" r="1" gradientTransform="translate(37.2824 3.29946) rotate(155.688) scale(19.5357 24.0984)" gradientUnits="userSpaceOnUse"><stop stop-color="#392E5C"/><stop offset="1" stop-color="#392E5C"/></radialGradient><linearGradient id="paint3_linear_49_1324" x1="26.252" x2="32.326" y1="10.321" y2="18.442" gradientUnits="userSpaceOnUse"><stop offset="1" stop-color="#392E5C"/></linearGradient><linearGradient id="paint4_linear_49_1324" x1="2.003" x2="23.863" y1="66.214" y2="43.766" gradientUnits="userSpaceOnUse"><stop offset="1" stop-color="#392E5C"/></linearGradient><radialGradient id="paint5_radial_49_1324" cx="0" cy="0" r="1" gradientTransform="translate(84.9431 23.8543) rotate(-178.234) scale(11.3813 13.3982)" gradientUnits="userSpaceOnUse"><stop stop-color="#392E5C"/><stop offset="1" stop-color="#392E5C"/></radialGradient><linearGradient id="paint6_linear_49_1324" x1="48.635" x2="47.408" y1="33.426" y2="52.72" gradientUnits="userSpaceOnUse"><stop stop-opacity="0"/><stop offset=".125" stop-color="#F4F3E4" stop-opacity=".355"/><stop offset=".521" stop-color="#E6E0AD" stop-opacity=".496"/><stop offset="1" stop-color="#E1DA9B" stop-opacity=".544"/></linearGradient><radialGradient id="paint7_radial_49_1324" cx="0" cy="0" r="1" gradientTransform="translate(50.6542 62.2074) rotate(90.2686) scale(17.9806 8.75613)" gradientUnits="userSpaceOnUse"><stop stop-color="#fff"/><stop offset="1" stop-color="#F9E84F"/></radialGradient></defs></svg>